<?xml version="1.0" standalone="no"?>
<!DOCTYPE svg PUBLIC "-//W3C//DTD SVG 20010904//EN"
 "http://www.w3.org/TR/2001/REC-SVG-20010904/DTD/svg10.dtd">
<svg version="1.0" xmlns="http://www.w3.org/2000/svg"
 width="1024.000000pt" height="1280.000000pt" viewBox="0 0 1024.000000 1280.000000"
 preserveAspectRatio="xMidYMid meet">
<metadata>
Created by potrace 1.16, written by Peter Selinger 2001-2019
</metadata>
<g transform="translate(0.000000,1280.000000) scale(0.100000,-0.100000)"
fill="#000000" stroke="none">
<path d="M0 6400 l0 -6400 1246 0 c1181 0 1245 1 1240 18 -11 37 -17 176 -19
382 -1 178 3 237 21 346 41 244 99 539 150 754 16 69 33 145 36 170 4 24 11
49 15 55 15 19 51 139 51 169 -1 34 -20 47 -139 92 -71 27 -120 60 -166 114
-16 19 -56 61 -88 93 -32 32 -67 75 -77 95 -32 61 -53 162 -51 240 1 39 2 82
2 95 2 99 -47 476 -65 506 -5 8 -52 344 -71 506 -39 341 -44 731 -15 1105 13
152 12 156 -10 210 -48 118 -50 126 -39 164 6 20 24 52 40 71 32 37 37 62 43
220 16 416 26 543 46 610 11 39 30 142 41 229 11 88 27 180 36 205 13 41 53
121 153 306 83 153 261 323 413 395 37 17 67 35 67 39 0 4 24 20 53 36 28 15
72 40 97 56 25 15 81 42 125 59 44 17 144 63 222 101 78 38 144 69 148 69 4 0
34 20 68 44 67 47 507 276 532 276 19 0 31 24 43 90 10 54 10 56 -28 115 -36
56 -92 182 -119 267 -9 28 -20 39 -45 48 -37 12 -126 100 -150 147 -9 18 -30
52 -46 77 -17 25 -44 82 -60 127 -17 45 -41 105 -54 133 -32 67 -51 201 -36
255 13 51 52 96 101 122 39 19 39 20 24 49 -26 50 -54 300 -54 475 1 131 5
178 24 260 13 55 27 119 30 143 9 58 114 262 208 404 67 102 83 120 138 153
34 21 84 58 110 81 28 25 67 48 91 54 24 7 65 25 93 42 27 17 72 38 100 48 27
10 68 24 90 33 105 39 216 70 270 74 33 3 77 11 98 19 52 19 329 22 417 4 36
-8 92 -15 125 -16 102 -3 184 -19 205 -40 31 -31 100 -199 108 -261 4 -32 4
-78 -1 -102 -9 -42 -8 -46 16 -65 46 -37 105 -126 147 -223 50 -114 61 -196
52 -415 -3 -104 -1 -165 8 -210 16 -74 16 -68 18 -230 2 -105 5 -128 17 -128
26 0 64 -50 79 -103 19 -64 39 -311 30 -369 -3 -24 -17 -80 -30 -124 -21 -72
-30 -87 -73 -126 -45 -41 -51 -51 -61 -109 -16 -92 -76 -334 -100 -403 l-20
-59 21 -69 c13 -41 28 -72 38 -75 9 -3 63 -26 121 -51 106 -46 166 -65 320
-103 46 -11 94 -29 106 -38 13 -10 58 -32 101 -48 154 -60 216 -76 301 -79
198 -6 235 -13 314 -59 40 -24 102 -51 137 -60 90 -23 132 -46 237 -131 192
-153 424 -499 470 -700 19 -85 81 -285 104 -339 10 -22 23 -64 31 -93 8 -31
27 -69 46 -91 38 -45 53 -80 53 -124 0 -18 18 -86 40 -152 22 -66 52 -154 65
-196 20 -58 26 -98 26 -165 1 -196 -20 -875 -30 -959 -6 -49 -8 -100 -5 -112
6 -22 -6 -238 -27 -503 -6 -69 -14 -181 -19 -250 -13 -173 -47 -296 -123 -449
-82 -163 -113 -197 -238 -261 -56 -29 -127 -75 -159 -104 -31 -28 -76 -67 -99
-86 l-42 -35 15 -125 c27 -210 48 -417 77 -745 14 -151 22 -345 25 -565 6
-393 4 -381 148 -905 33 -120 73 -289 81 -348 l7 -47 1114 0 1114 0 0 6400 0
6400 -5120 0 -5120 0 0 -6400z"/>
<path d="M5065 10951 c-44 -3 -91 -13 -105 -20 -14 -8 -63 -20 -110 -27 -117
-17 -204 -41 -272 -75 -31 -16 -65 -29 -76 -29 -10 0 -38 -13 -60 -30 -23 -16
-48 -30 -55 -30 -35 0 -106 -34 -147 -70 -25 -22 -65 -52 -90 -67 -25 -15 -51
-32 -58 -39 -24 -24 -112 -169 -154 -254 -23 -47 -55 -105 -70 -129 -15 -25
-28 -57 -28 -73 0 -15 -9 -61 -20 -102 -17 -62 -21 -107 -22 -263 -2 -283 16
-393 93 -581 13 -31 12 -35 -5 -48 -19 -13 -18 -15 22 -52 41 -38 54 -74 32
-87 -6 -4 -41 12 -79 34 -75 45 -100 50 -125 22 -14 -16 -15 -25 -5 -72 6 -30
23 -76 38 -104 14 -27 27 -58 28 -67 5 -33 69 -113 104 -130 47 -24 52 -3 8
32 -31 26 -31 27 -8 24 50 -8 106 -21 117 -28 8 -5 12 0 12 13 0 12 -4 21 -10
21 -11 0 -13 102 -4 173 6 43 8 45 40 44 22 -1 39 5 47 18 8 10 19 15 25 11
22 -14 12 31 -13 58 -19 21 -21 26 -8 26 9 0 27 -9 39 -21 18 -17 28 -19 51
-12 33 11 143 -9 176 -32 12 -8 28 -15 37 -15 8 0 32 -9 53 -20 20 -11 37 -16
37 -11 0 5 9 7 20 4 11 -3 17 -10 14 -15 -3 -5 0 -8 7 -7 8 2 29 -1 47 -5 36
-9 165 21 156 36 -3 4 4 8 15 8 24 0 38 -19 21 -30 -8 -5 -9 -10 -2 -14 7 -4
6 -15 -3 -33 -8 -15 -11 -31 -7 -37 4 -7 8 -4 10 7 2 11 9 16 18 13 8 -3 14
-1 14 4 0 6 34 62 75 125 41 63 75 119 75 125 0 31 66 -8 81 -49 6 -14 10 -27
10 -28 -1 -2 8 -12 19 -23 11 -11 20 -32 21 -47 0 -25 1 -26 9 -8 5 12 9 14 9
6 1 -8 4 -11 8 -7 4 3 24 -10 45 -31 37 -36 123 -70 134 -52 2 5 18 6 34 2 19
-3 30 -1 30 6 0 6 -6 11 -14 11 -7 0 -16 9 -19 20 -4 15 0 20 15 20 10 0 17 4
14 9 -7 10 13 9 31 -2 6 -4 14 -3 17 2 4 5 1 11 -6 13 -7 3 11 4 39 3 31 -1
54 2 56 9 3 6 16 12 31 14 36 3 114 53 137 88 10 16 19 24 19 19 0 -19 53 -9
61 11 7 17 8 17 8 2 1 -22 21 -24 21 -3 0 11 12 15 45 15 33 0 45 4 45 15 0 8
5 15 10 15 6 0 10 10 11 23 1 21 1 21 8 -3 5 -17 9 -21 15 -12 10 17 26 5 26
-19 0 -13 5 -18 13 -14 6 4 5 0 -5 -7 -9 -8 -16 -25 -16 -38 0 -14 -1 -32 -3
-40 -6 -39 2 -151 11 -145 5 3 7 -8 5 -27 -6 -50 47 -69 74 -26 17 28 25 315
10 371 -11 42 -19 45 -44 17 -10 -11 -22 -17 -26 -14 -5 3 -9 -6 -9 -20 0 -14
-4 -26 -9 -26 -14 0 -26 23 -15 27 12 4 7 59 -8 90 -7 14 -7 31 -1 50 13 36
10 250 -5 428 -7 77 -14 210 -15 295 l-2 155 -49 90 c-51 93 -86 144 -143 205
-37 39 -39 59 -22 155 12 61 11 64 -20 127 -36 75 -53 93 -98 103 -18 3 -33
10 -33 14 0 4 -15 5 -32 3 -18 -2 -67 6 -108 17 -85 24 -198 32 -315 22z m15
-790 c47 -12 202 -22 196 -13 -2 4 14 6 37 4 32 -2 39 -1 27 8 -11 8 -8 9 15
4 16 -4 36 -13 43 -21 7 -7 21 -13 30 -13 9 0 28 -9 42 -20 14 -11 31 -20 38
-20 6 0 12 -7 12 -15 0 -8 5 -15 10 -15 6 0 10 -7 10 -15 0 -8 3 -15 8 -15 4
0 20 -12 36 -26 22 -21 25 -29 14 -35 -8 -5 -9 -9 -1 -9 13 0 53 -64 53 -86 0
-8 4 -13 9 -10 5 3 13 -12 19 -34 8 -34 7 -40 -6 -40 -12 0 -12 -3 4 -17 20
-19 27 -37 26 -65 0 -10 4 -17 11 -15 6 1 17 -16 24 -38 8 -22 19 -43 26 -47
7 -4 8 -8 2 -8 -6 0 -6 -3 1 -8 22 -15 63 -99 69 -142 4 -25 9 -52 13 -60 3
-8 7 -25 8 -38 3 -22 1 -23 -44 -16 -26 3 -51 10 -56 15 -6 5 -19 9 -30 10
-12 0 -15 3 -8 6 6 2 12 11 12 19 0 8 8 14 18 14 10 0 4 7 -16 17 -18 8 -30
18 -28 21 3 3 -13 15 -36 27 -23 12 -52 32 -65 45 -17 16 -31 21 -53 18 -27
-4 -30 -2 -31 21 l-1 26 -7 -24 c-7 -25 -29 -34 -93 -35 -20 -1 -34 -4 -31 -8
4 -8 -30 -12 -79 -8 -24 1 -28 -2 -28 -27 0 -15 -4 -23 -8 -18 -8 11 -113 14
-105 3 2 -5 -3 -8 -11 -8 -9 0 -31 -9 -50 -20 -27 -14 -34 -16 -29 -5 3 8 14
15 26 15 11 0 18 3 14 6 -13 14 -57 -7 -57 -26 0 -11 -5 -20 -11 -20 -5 0 -7
5 -3 12 5 7 3 8 -5 4 -7 -5 -10 -14 -7 -21 2 -7 -4 -15 -15 -18 -10 -3 -19 -1
-19 4 0 5 -5 9 -11 9 -6 0 -9 -9 -6 -20 3 -11 1 -20 -4 -20 -5 0 -9 6 -9 14 0
9 -7 12 -21 9 -16 -5 -20 -2 -17 13 2 11 -2 18 -9 16 -7 -1 -13 5 -13 13 0 8
-4 15 -10 15 -5 0 -10 -4 -10 -9 0 -5 -9 -7 -20 -4 -11 3 -20 1 -20 -5 0 -12
-12 -14 -97 -14 -35 0 -63 -4 -63 -9 0 -4 -7 -6 -15 -3 -8 4 -15 2 -15 -2 0
-5 -59 -8 -130 -7 -99 1 -129 -1 -123 -10 5 -9 3 -9 -8 0 -13 10 -24 6 -66
-25 -28 -20 -63 -46 -78 -56 -14 -11 -33 -33 -41 -48 -8 -15 -20 -28 -27 -28
-7 0 -29 -12 -48 -26 -47 -36 -98 -57 -118 -48 -9 4 -26 6 -38 5 -32 -3 -28 8
6 20 28 10 30 15 36 77 7 76 26 152 37 152 4 0 8 7 8 15 0 8 4 15 8 15 14 0
50 83 57 133 4 26 10 47 14 47 3 0 7 10 7 23 4 66 16 131 29 155 24 44 61 81
89 88 15 3 35 18 46 31 12 15 20 20 20 12 1 -10 4 -9 11 4 5 9 17 17 24 17 8
0 15 5 15 10 0 6 11 15 25 20 14 5 25 15 25 21 0 7 10 9 25 7 17 -4 25 -1 25
8 0 9 11 14 29 14 16 0 36 7 45 15 8 8 22 15 30 15 9 0 24 4 34 9 43 24 130
59 160 66 17 3 32 11 32 17 0 6 13 8 33 4 23 -4 28 -3 17 4 -10 7 14 10 78 10
60 0 91 4 87 10 -8 12 0 12 45 1z"/>
<path d="M5612 9690 c-12 -5 -29 -7 -37 -4 -18 7 -70 -4 -61 -13 3 -3 1 -12
-5 -20 -9 -10 -8 -13 1 -13 7 0 10 -7 6 -15 -3 -8 2 -21 10 -30 8 -8 12 -19 9
-25 -3 -6 4 -10 18 -10 13 0 37 -11 53 -25 16 -14 36 -25 44 -26 8 0 22 -2 31
-4 13 -2 16 7 17 53 0 40 4 58 16 64 9 5 14 14 11 19 -4 5 -10 7 -15 4 -5 -3
-11 -1 -15 5 -11 18 -23 10 -17 -12 3 -14 2 -19 -6 -14 -7 4 -12 16 -12 26 0
23 -10 50 -19 49 -3 0 -16 -4 -29 -9z"/>
<path d="M5197 8827 c-2 -6 19 -31 45 -57 41 -40 48 -52 48 -86 0 -21 -4 -45
-9 -53 -11 -17 -83 -23 -134 -11 -29 6 -51 4 -83 -8 -24 -9 -44 -20 -44 -24 0
-12 -79 -9 -103 3 -15 9 -22 9 -25 1 -2 -6 -10 -8 -19 -5 -10 4 -14 2 -10 -4
7 -10 -54 -29 -80 -24 -17 2 -27 -38 -15 -63 5 -11 15 -36 22 -53 8 -21 19
-33 31 -33 10 0 20 -4 24 -10 3 -6 15 -5 31 2 17 8 38 8 72 1 26 -5 81 -8 122
-7 64 3 71 2 55 -10 -30 -20 -72 -28 -165 -31 -117 -4 -181 -15 -173 -28 4 -6
1 -8 -8 -4 -49 20 -68 33 -65 44 3 6 -5 13 -17 15 -12 2 -27 13 -33 25 -6 13
-14 20 -18 15 -4 -4 -5 5 -1 21 5 17 3 27 -4 27 -6 0 -11 7 -11 15 0 8 3 15 8
15 4 0 16 20 27 45 10 24 24 46 31 49 6 2 14 22 17 43 4 21 20 57 37 78 16 22
30 45 30 52 0 13 -28 11 -38 -3 -4 -5 -14 -10 -22 -12 -8 -2 -19 -10 -25 -19
-5 -9 -18 -25 -27 -35 -10 -10 -18 -22 -18 -28 0 -5 -11 -20 -25 -34 -14 -14
-30 -38 -36 -53 -8 -22 -12 -24 -19 -13 -8 13 -10 13 -10 -1 0 -9 -11 -20 -25
-23 -13 -3 -31 -19 -40 -36 -8 -16 -20 -32 -26 -36 -8 -4 -9 -3 -5 4 4 7 1 12
-8 12 -8 0 -17 6 -20 13 -5 9 -7 9 -12 0 -4 -10 -9 -9 -21 3 -10 9 -30 15 -52
13 -20 -1 -43 1 -51 4 -30 11 -96 14 -128 5 -35 -10 -58 -48 -47 -77 4 -9 8
-55 11 -102 5 -99 35 -185 92 -263 48 -65 55 -140 22 -236 -31 -92 -36 -98
-83 -110 -23 -7 -62 -23 -87 -38 -70 -41 -125 -70 -255 -134 -66 -33 -142 -76
-169 -95 -27 -19 -115 -67 -195 -105 -247 -119 -351 -168 -355 -168 -2 0 -64
-36 -137 -80 -74 -44 -159 -95 -189 -112 -117 -70 -247 -222 -362 -423 -88
-154 -88 -155 -134 -455 -32 -203 -53 -427 -74 -785 -5 -77 -13 -162 -20 -190
-8 -34 -9 -101 -5 -205 4 -90 2 -203 -4 -270 -19 -197 -25 -572 -11 -715 7
-71 14 -155 16 -185 12 -166 57 -488 109 -767 29 -158 39 -283 36 -447 -3
-169 12 -203 152 -347 85 -89 122 -120 152 -129 22 -7 63 -23 90 -35 28 -13
65 -29 83 -35 21 -8 34 -21 38 -37 9 -33 -1 -161 -14 -193 -34 -83 -151 -567
-186 -770 -8 -47 -24 -137 -35 -200 -25 -143 -40 -280 -42 -390 -2 -100 16
-387 26 -412 7 -17 143 -18 2657 -18 l2650 0 -7 56 c-3 30 -17 92 -30 137 -13
45 -42 154 -65 242 -23 88 -50 192 -60 230 -10 39 -24 97 -30 130 -7 33 -17
66 -24 74 -8 10 -10 83 -8 245 3 236 -8 479 -34 756 -8 85 -21 223 -29 305
-18 190 -42 401 -55 485 -19 128 -18 132 58 191 37 29 90 74 117 100 29 28 93
69 153 99 56 29 113 65 126 81 66 78 165 315 185 444 10 63 39 421 38 470 0
11 3 49 6 85 3 36 9 124 12 195 3 72 10 195 16 273 5 79 9 277 10 440 0 164 4
329 8 367 5 39 7 72 5 74 -2 2 -27 -3 -56 -12 -29 -8 -69 -16 -88 -16 -36 0
-191 53 -269 92 -106 53 -203 181 -217 287 -12 91 3 240 25 240 4 0 25 24 46
52 67 89 80 98 145 98 53 0 94 -17 120 -51 11 -13 72 -40 78 -34 4 4 -23 95
-60 203 -37 109 -70 219 -74 246 -4 27 -17 76 -30 108 -29 70 -108 215 -133
243 -10 11 -42 56 -71 100 -51 75 -104 133 -215 234 -79 71 -135 100 -227 117
-66 12 -95 24 -141 56 -64 44 -124 57 -271 58 -78 0 -71 -2 -336 90 -107 38
-230 78 -273 90 -43 11 -140 48 -214 81 -75 33 -149 63 -165 66 -35 7 -55 34
-73 100 -7 26 -20 65 -29 87 -19 43 -18 56 24 196 15 52 31 113 34 135 3 22
11 63 17 90 6 28 13 85 16 128 2 42 9 75 13 72 5 -3 2 11 -6 31 -8 20 -13 43
-10 50 3 8 1 14 -5 14 -6 0 -9 7 -5 15 3 9 0 15 -9 15 -8 0 -15 7 -15 15 0 8
5 15 10 15 6 0 10 -5 10 -12 0 -6 3 -9 6 -6 3 3 0 15 -7 26 -10 17 -15 18 -26
7 -7 -8 -13 -28 -13 -46 0 -27 -2 -30 -15 -19 -12 10 -15 10 -15 -3 0 -9 -5
-19 -12 -23 -7 -5 -8 -2 -3 7 6 11 5 12 -6 2 -7 -7 -21 -13 -31 -13 -10 0 -18
-5 -18 -11 0 -19 -27 -38 -47 -33 -14 4 -29 -3 -47 -23 -14 -15 -22 -29 -16
-31 20 -7 9 -22 -16 -22 -14 0 -23 4 -19 10 3 6 -1 10 -10 10 -9 0 -13 -4 -10
-10 3 -5 1 -10 -4 -10 -6 0 -11 -9 -11 -20 0 -11 -5 -20 -11 -20 -5 0 -7 -5
-4 -10 3 -6 0 -16 -7 -23 -18 -18 -68 -28 -68 -13 0 6 -14 12 -30 13 -17 1
-29 -1 -26 -5 8 -14 -20 -29 -39 -21 -18 7 -17 8 5 9 24 2 23 3 -5 10 l-30 8
30 2 c17 1 23 4 15 6 -12 4 -15 14 -12 42 3 20 9 40 14 43 15 9 15 122 1 126
-7 3 -13 10 -13 17 0 7 -12 22 -26 32 -14 10 -33 25 -41 33 -18 17 -71 22 -76
8z m18 -567 c18 -8 18 -9 2 -9 -10 -1 -16 -5 -13 -9 9 -14 -97 -59 -126 -54
-10 2 -18 -2 -18 -7 0 -7 -31 -10 -90 -8 -77 2 -90 0 -88 -13 4 -24 -11 -40
-38 -40 -21 0 -24 -3 -18 -27 3 -16 15 -34 25 -42 11 -7 19 -23 19 -35 0 -15
3 -17 9 -8 6 10 10 8 14 -8 4 -17 11 -21 26 -17 12 3 44 -1 71 -8 38 -10 50
-10 50 -1 0 8 27 12 90 12 61 1 95 5 107 15 16 13 17 12 4 -3 -7 -10 -27 -18
-45 -19 -28 0 -29 -1 -8 -9 25 -11 27 -16 10 -26 -7 -4 -8 -3 -4 4 5 8 0 12
-13 12 -13 0 -21 -7 -21 -16 0 -13 -7 -15 -30 -10 -36 7 -129 -13 -148 -31 -7
-7 -31 -13 -52 -13 -21 0 -41 -4 -45 -9 -8 -14 -73 -1 -132 26 -29 13 -56 22
-61 19 -5 -3 -14 11 -21 30 -7 18 -15 34 -19 34 -4 0 -7 15 -7 34 0 19 3 32 8
29 4 -2 7 13 7 34 1 32 6 42 35 63 19 14 35 31 35 38 0 15 111 5 122 -12 4 -6
8 1 8 17 0 19 -5 27 -17 27 -16 1 -16 2 1 15 15 11 51 15 140 16 67 1 135 5
151 9 40 10 56 10 80 0z m-2692 -2612 c12 -6 42 -26 66 -45 40 -30 50 -33 115
-34 66 0 73 -2 94 -29 13 -17 28 -56 35 -91 10 -55 17 -68 64 -114 29 -28 53
-59 53 -68 0 -9 -26 -41 -57 -71 l-58 -54 3 -96 c4 -124 -5 -136 -110 -136
-81 -1 -90 -6 -148 -80 -33 -43 -59 -69 -70 -70 -3 0 -36 28 -74 62 l-69 62
-64 -17 c-36 -9 -69 -14 -74 -11 -11 7 -5 201 8 233 l9 23 29 -25 c29 -24 29
-26 17 -71 -17 -64 -16 -67 14 -56 14 6 45 10 70 10 36 0 51 -6 83 -35 21 -19
44 -35 52 -35 7 0 32 20 55 45 40 44 42 45 101 45 38 0 65 5 72 13 6 8 10 40
10 73 -1 68 12 108 46 142 14 14 25 30 25 37 0 12 -73 85 -86 85 -6 0 -1 -43
10 -90 6 -22 5 -23 -4 -5 -8 16 -9 10 -5 -25 4 -34 3 -41 -6 -30 -9 12 -10 10
-5 -9 11 -53 -30 -104 -151 -185 -24 -16 -53 -28 -65 -28 -33 0 -178 71 -186
91 -3 9 -9 18 -13 21 -11 8 -13 76 -4 135 l8 50 -47 -47 c-52 -54 -53 -53 -31
67 8 44 14 101 15 127 0 56 17 71 95 88 46 10 53 16 87 68 20 31 40 65 43 75
8 20 18 21 48 5z m1996 -112 c12 -14 4 -103 -10 -112 -5 -3 -9 -14 -9 -25 0
-11 -10 -23 -22 -28 -24 -9 -283 -46 -395 -57 -59 -5 -63 -5 -63 16 0 11 8 47
17 80 19 64 38 80 95 80 17 0 90 11 162 25 72 13 145 26 161 28 17 2 35 5 41
6 6 0 17 -5 23 -13z m-507 -141 c-2 -27 -6 -53 -10 -56 -4 -4 -26 -9 -49 -13
-37 -5 -43 -4 -43 11 0 10 -5 25 -11 33 -8 12 -9 10 -4 -7 5 -17 0 -25 -28
-38 -18 -8 -47 -15 -63 -13 -16 1 -35 -1 -41 -5 -7 -4 -19 2 -28 15 l-16 23
-18 -24 c-14 -18 -20 -20 -23 -10 -4 11 -8 12 -19 2 -17 -16 -61 -17 -77 -1
-15 15 -15 53 -1 79 8 16 19 20 53 18 23 -2 48 1 55 5 8 5 21 0 35 -13 23 -22
23 -22 29 -2 2 11 13 20 23 21 125 7 138 6 144 -19 5 -22 6 -21 23 14 14 30
22 36 45 33 26 -3 27 -5 24 -53z m940 -1061 c28 5 37 3 32 -5 -4 -8 0 -9 15
-4 11 3 54 1 94 -5 39 -6 100 -11 134 -13 35 -1 63 -6 63 -11 0 -4 10 -6 22
-3 12 4 54 2 93 -3 38 -5 129 -12 200 -15 72 -3 162 -8 200 -11 121 -9 226
-11 230 -4 3 4 72 8 154 9 144 2 153 1 208 -25 43 -20 86 -56 163 -133 119
-120 160 -166 160 -181 0 -5 4 -10 9 -10 4 0 21 -29 36 -65 16 -36 31 -65 35
-65 3 0 12 -22 19 -49 9 -36 10 -55 2 -70 -6 -11 -10 -26 -9 -32 2 -7 -8 -13
-21 -13 -29 -1 -40 -23 -14 -29 10 -2 -13 -2 -52 1 -43 2 -74 10 -81 18 -6 8
-28 14 -50 13 -21 0 -75 5 -119 11 -54 7 -81 7 -83 0 -6 -16 -22 -12 -22 5 0
8 -9 15 -20 15 -11 0 -20 5 -20 10 0 14 -47 13 -52 -1 -2 -6 -14 -8 -31 -4
-15 4 -24 11 -21 16 9 16 -53 10 -66 -6 -13 -16 -65 -13 -84 6 -5 4 -22 5 -37
2 -24 -4 -30 -1 -38 18 -8 21 -16 12 -12 -13 2 -15 -27 -8 -33 7 -3 8 -12 15
-21 15 -8 0 -15 6 -15 13 -1 7 -6 4 -15 -6 -17 -23 -51 -15 -58 14 -3 12 -10
18 -17 14 -6 -4 -18 -1 -26 6 -11 9 -58 13 -159 13 -79 1 -138 4 -132 9 7 4
-6 7 -28 6 -70 -1 -129 7 -167 25 -21 9 -38 13 -38 8 0 -14 -82 -7 -160 14
-68 17 -73 18 -85 1 -11 -15 -13 -16 -19 -2 -5 13 -9 13 -26 3 -18 -12 -23 -9
-45 17 -14 17 -46 73 -71 125 -25 52 -50 97 -55 98 -5 2 -7 7 -4 12 2 4 -15
46 -40 93 -48 91 -51 103 -34 141 11 22 19 25 73 28 34 2 69 -1 80 -6 10 -4
36 -5 58 -2z m-648 -10 c11 -4 13 -11 6 -29 -9 -25 3 -45 15 -25 3 5 14 10 24
10 10 0 36 8 57 17 22 9 42 16 47 15 4 -1 7 1 7 6 0 9 138 8 167 -2 33 -11 84
-91 110 -171 13 -38 28 -80 35 -93 9 -18 9 -30 -1 -55 -25 -65 -48 -157 -44
-180 3 -14 -2 -29 -11 -36 -9 -8 -16 -24 -16 -37 0 -35 -20 -72 -43 -78 -25
-6 -37 0 -37 20 0 18 -26 18 -80 -1 -52 -18 -112 -19 -129 -2 -10 10 -12 9 -9
-2 4 -19 -32 -27 -43 -9 -5 7 -9 16 -9 19 0 3 46 5 103 5 79 -1 109 3 134 17
18 9 43 17 56 17 27 0 47 34 47 80 0 16 5 32 10 35 6 3 10 18 10 33 0 21 3 24
10 12 6 -9 7 19 5 79 -5 94 -19 138 -72 226 -10 17 -19 32 -20 34 -2 2 -9 -1
-16 -8 -11 -8 -20 -7 -39 8 -25 20 -74 19 -61 -2 4 -7 -5 -8 -27 -4 -18 4 -44
7 -59 8 l-26 1 25 8 c24 8 24 8 3 9 -31 1 -92 -29 -98 -50 -7 -23 -36 -33 -47
-17 -5 8 -8 2 -8 -19 0 -22 -8 -38 -27 -55 -33 -28 -70 -101 -54 -106 14 -5
15 -82 1 -82 -5 0 -10 17 -11 38 l-1 37 -16 -50 -16 -50 -6 40 c-5 38 -7 40
-49 47 -49 8 -57 14 -63 42 -2 13 -20 25 -58 37 -30 10 -56 19 -57 19 -2 0 -3
7 -3 15 0 8 -7 15 -15 15 -19 0 -19 10 1 39 12 17 13 26 5 34 -20 20 -13 47
12 47 35 0 67 11 61 21 -3 5 0 9 6 9 6 0 8 5 4 12 -5 7 -3 8 5 3 11 -6 34 1
116 36 11 5 45 10 75 12 30 2 65 4 77 5 12 1 28 -1 37 -4z m308 -203 c36 -34
43 -85 14 -106 -20 -15 -136 -16 -136 -2 0 5 -10 2 -23 -6 -13 -8 -45 -18 -71
-22 -57 -9 -72 5 -51 45 7 14 18 37 24 53 12 30 43 47 111 57 84 14 100 11
132 -19z m-449 -622 c15 0 16 -3 7 -15 -11 -12 -6 -14 31 -15 40 -1 41 -2 14
-8 l-30 -7 38 -7 c28 -6 37 -13 37 -27 0 -11 7 -20 15 -20 8 0 15 -4 15 -9 0
-5 9 -11 21 -14 11 -3 23 -15 26 -26 3 -12 12 -21 20 -21 7 0 24 -9 36 -21 12
-11 39 -29 60 -40 20 -11 37 -24 37 -29 0 -6 12 -10 26 -10 15 0 43 -9 63 -19
85 -46 150 -71 184 -71 21 0 37 -5 37 -11 0 -8 4 -8 15 1 18 15 55 4 55 -17 0
-9 7 -21 16 -27 14 -10 12 -15 -10 -38 -27 -27 -70 -38 -148 -38 -34 0 -50 -5
-57 -17 -9 -17 -11 -17 -40 0 -18 10 -36 15 -44 10 -6 -4 -43 -9 -82 -11 -51
-2 -72 0 -80 11 -5 8 -28 17 -50 21 -22 4 -50 17 -62 28 -20 19 -23 19 -29 4
-4 -10 -18 -16 -41 -16 -22 0 -32 4 -27 11 4 7 -4 10 -22 9 -47 -4 -112 11
-119 27 -8 23 -37 -5 -30 -28 9 -28 -19 -24 -34 5 -14 26 -42 25 -73 -1 -14
-13 -19 -12 -37 6 -12 12 -21 25 -21 30 0 5 -8 7 -17 5 -13 -3 -24 7 -39 33
-18 33 -19 43 -9 83 21 83 45 132 103 206 25 32 50 54 62 54 13 0 17 5 14 14
-5 12 8 13 73 9 43 -2 86 -5 96 -4z"/>
<path d="M2486 5503 c-22 -42 -66 -78 -112 -91 -44 -13 -54 -32 -54 -103 0
-26 4 -29 30 -29 32 0 37 9 18 28 -14 14 -7 23 21 25 16 1 19 6 14 26 -5 20
-3 23 11 18 13 -5 19 -1 23 13 6 22 37 27 49 9 4 -7 11 -1 18 17 l12 28 22
-22 c21 -21 22 -21 32 -2 13 24 30 26 30 5 0 -18 12 -19 27 -4 16 16 26 -6 13
-30 -15 -30 -12 -33 15 -15 40 26 47 12 14 -29 -30 -36 -32 -37 -55 -22 -21
14 -24 14 -24 0 0 -8 5 -15 10 -15 6 0 10 -7 10 -15 0 -11 18 -3 58 26 31 24
60 47 64 53 8 12 11 90 3 97 -2 3 -32 2 -67 -1 -35 -4 -67 -3 -73 2 -5 4 -24
19 -41 33 -40 32 -50 31 -68 -2z"/>
<path d="M2620 5215 c-7 -9 -15 -14 -17 -11 -3 2 -22 -4 -44 -13 -32 -15 -47
-16 -77 -8 -21 6 -50 7 -64 4 -21 -6 -26 -14 -31 -48 -8 -58 7 -85 51 -93 23
-3 39 -1 44 7 5 8 8 7 8 -5 0 -25 41 -23 70 2 13 11 33 20 46 20 31 0 44 28
48 100 3 62 -8 76 -34 45z"/>
</g>
</svg>
